<svg width="19" height="19" viewBox="0 0 19 19" fill="none" xmlns="http://www.w3.org/2000/svg">
<g opacity="0.1" filter="url(#filter0_d_1211_11435)">
<rect x="1" y="1" width="17.017" height="17.017" rx="8.50848" fill="#2F7158"/>
</g>
<rect x="1" y="1" width="17.017" height="17.017" rx="8.50848" fill="#E0E1DF"/>
<path d="M10.5612 10.5839C10.5612 10.5839 10.6337 10.5113 10.7787 10.3662C10.9237 10.221 10.9962 9.94334 10.9962 9.53311C10.9962 9.12287 10.8512 8.77262 10.5612 8.48236C10.2713 8.1921 9.92136 8.04697 9.51154 8.04697C9.10172 8.04697 8.75182 8.1921 8.46185 8.48236C8.17188 8.77262 8.0269 9.12287 8.0269 9.53311C8.0269 9.94334 8.17188 10.2936 8.46185 10.5839C8.75182 10.8741 9.10172 11.0192 9.51154 11.0192C9.92136 11.0192 10.2713 10.8741 10.5612 10.5839ZM11.1296 7.91345C11.1296 7.91345 11.2407 8.02472 11.463 8.24725C11.6853 8.46978 11.7965 8.8984 11.7965 9.53311C11.7965 10.1678 11.5742 10.7077 11.1296 11.1528C10.6849 11.5978 10.1456 11.8204 9.51154 11.8204C8.87748 11.8204 8.33813 11.5978 7.89351 11.1528C7.4489 10.7077 7.22659 10.1678 7.22659 9.53311C7.22659 8.8984 7.4489 8.35852 7.89351 7.91345C8.33813 7.46838 8.87748 7.24585 9.51154 7.24585C10.1456 7.24585 10.6849 7.46838 11.1296 7.91345ZM12.2662 6.77563C12.2662 6.77563 12.2923 6.80175 12.3445 6.854C12.3967 6.90625 12.4228 7.0059 12.4228 7.15297C12.4228 7.30003 12.3706 7.42581 12.2662 7.53031C12.1619 7.6348 12.0362 7.68705 11.8893 7.68705C11.7424 7.68705 11.6167 7.6348 11.5123 7.53031C11.4079 7.42581 11.3557 7.30003 11.3557 7.15297C11.3557 7.0059 11.4079 6.88012 11.5123 6.77563C11.6167 6.67113 11.7424 6.61889 11.8893 6.61889C12.0362 6.61889 12.1619 6.67113 12.2662 6.77563ZM9.95519 5.87292C9.95519 5.87292 9.88802 5.8734 9.75367 5.87437C9.61931 5.87533 9.53861 5.87582 9.51154 5.87582C9.48448 5.87582 9.33659 5.87485 9.06789 5.87292C8.79918 5.87098 8.59524 5.87098 8.45605 5.87292C8.31687 5.87485 8.13032 5.88066 7.89641 5.89033C7.66251 5.90001 7.46339 5.91936 7.29908 5.94838C7.13476 5.97741 6.99654 6.01321 6.88442 6.05578C6.69111 6.13318 6.52099 6.24542 6.37408 6.39248C6.22716 6.53955 6.11504 6.70984 6.03771 6.90334C5.99518 7.01558 5.95942 7.15393 5.93042 7.31842C5.90143 7.4829 5.8821 7.68221 5.87243 7.91635C5.86276 8.1505 5.85697 8.33723 5.85503 8.47656C5.8531 8.61588 5.8531 8.82003 5.85503 9.08901C5.85697 9.35798 5.85793 9.50602 5.85793 9.53311C5.85793 9.5602 5.85697 9.70823 5.85503 9.97721C5.8531 10.2462 5.8531 10.4503 5.85503 10.5897C5.85697 10.729 5.86276 10.9157 5.87243 11.1499C5.8821 11.384 5.90143 11.5833 5.93042 11.7478C5.95942 11.9123 5.99518 12.0506 6.03771 12.1629C6.11504 12.3564 6.22716 12.5267 6.37408 12.6737C6.52099 12.8208 6.69111 12.933 6.88442 13.0104C6.99654 13.053 7.13476 13.0888 7.29908 13.1178C7.46339 13.1469 7.66251 13.1662 7.89641 13.1759C8.13032 13.1856 8.31687 13.1914 8.45605 13.1933C8.59524 13.1952 8.79918 13.1952 9.06789 13.1933C9.33659 13.1914 9.48448 13.1904 9.51154 13.1904C9.53861 13.1904 9.68649 13.1914 9.95519 13.1933C10.2239 13.1952 10.4278 13.1952 10.567 13.1933C10.7062 13.1914 10.8928 13.1856 11.1267 13.1759C11.3606 13.1662 11.5597 13.1469 11.724 13.1178C11.8883 13.0888 12.0265 13.053 12.1387 13.0104C12.332 12.933 12.5021 12.8208 12.649 12.6737C12.7959 12.5267 12.908 12.3564 12.9854 12.1629C13.0279 12.0506 13.0637 11.9123 13.0927 11.7478C13.1217 11.5833 13.141 11.384 13.1507 11.1499C13.1603 10.9157 13.1661 10.729 13.1681 10.5897C13.17 10.4503 13.17 10.2462 13.1681 9.97721C13.1661 9.70823 13.1652 9.5602 13.1652 9.53311C13.1652 9.50602 13.1661 9.35798 13.1681 9.08901C13.17 8.82003 13.17 8.61588 13.1681 8.47656C13.1661 8.33723 13.1603 8.1505 13.1507 7.91635C13.141 7.68221 13.1217 7.4829 13.0927 7.31842C13.0637 7.15393 13.0279 7.01558 12.9854 6.90334C12.908 6.70984 12.7959 6.53955 12.649 6.39248C12.5021 6.24542 12.332 6.13318 12.1387 6.05578C12.0265 6.01321 11.8883 5.97741 11.724 5.94838C11.5597 5.91936 11.3606 5.90001 11.1267 5.89033C10.8928 5.88066 10.7062 5.87485 10.567 5.87292C10.4278 5.87098 10.2239 5.87098 9.95519 5.87292ZM13.9365 7.69285C13.9558 8.03343 13.9655 8.64684 13.9655 9.53311C13.9655 10.4194 13.9558 11.0328 13.9365 11.3734C13.8978 12.1784 13.6581 12.8014 13.2173 13.2426C12.7766 13.6838 12.1541 13.9238 11.3499 13.9625C11.0097 13.9818 10.3969 13.9915 9.51154 13.9915C8.62617 13.9915 8.01337 13.9818 7.67314 13.9625C6.86896 13.9238 6.24649 13.6838 5.80574 13.2426C5.36498 12.8014 5.12528 12.1784 5.08661 11.3734C5.06728 11.0328 5.05762 10.4194 5.05762 9.53311C5.05762 8.64684 5.06728 8.03343 5.08661 7.69285C5.12528 6.88786 5.36498 6.26477 5.80574 5.82357C6.24649 5.38237 6.86896 5.14243 7.67314 5.10372C8.01337 5.08437 8.62617 5.0747 9.51154 5.0747C10.3969 5.0747 11.0097 5.08437 11.3499 5.10372C12.1541 5.14243 12.7766 5.38237 13.2173 5.82357C13.6581 6.26477 13.8978 6.88786 13.9365 7.69285Z" fill="#2F7158"/>
<defs>
<filter id="filter0_d_1211_11435" x="-16.017" y="-6.90074" width="51.0505" height="51.0509" filterUnits="userSpaceOnUse" color-interpolation-filters="sRGB">
<feFlood flood-opacity="0" result="BackgroundImageFix"/>
<feColorMatrix in="SourceAlpha" type="matrix" values="0 0 0 0 0 0 0 0 0 0 0 0 0 0 0 0 0 0 127 0" result="hardAlpha"/>
<feOffset dy="9.11623"/>
<feGaussianBlur stdDeviation="8.50848"/>
<feComposite in2="hardAlpha" operator="out"/>
<feColorMatrix type="matrix" values="0 0 0 0 0.835294 0 0 0 0 0.929412 0 0 0 0 0.768627 0 0 0 1 0"/>
<feBlend mode="normal" in2="BackgroundImageFix" result="effect1_dropShadow_1211_11435"/>
<feBlend mode="normal" in="SourceGraphic" in2="effect1_dropShadow_1211_11435" result="shape"/>
</filter>
</defs>
</svg>
